<svg xmlns="http://www.w3.org/2000/svg" width="193.509" height="161.025" viewBox="0 0 193.509 161.025"><g transform="translate(-0.459 -0.523)"><path d="M6.608,12.992A92.566,92.566,0,0,1,17.59,5.81c6-3.588,11.9-5.993,18.912-5.8C47.9.326,58.185,4.176,67.549,10.3A57.732,57.732,0,0,1,80.838,21.758c1.646,2.017,3.155,4.142,4.614,6.3.9,1.331,1.758,2.692,2.6,4.061.508.824,1.6,1.994,1.639,3a1.641,1.641,0,0,1-2.353,1.55c-.927-.5-1.5-2.047-2.058-2.918-1.291-2.006-2.682-3.937-4.12-5.837a50.826,50.826,0,0,0-7.494-8.058,73.222,73.222,0,0,0-19.4-11.768c-.853,6.77-4.73,11.788-10.578,15.183-8.326,4.834-16.675,7.295-26.264,6.588C11.2,29.4,6.137,26.607,1.647,22.472.8,21.69-.277,20.479.065,19.184c.329-1.247,1.947-2.233,2.861-3.056C4.125,15.047,5.355,14.008,6.608,12.992Z" transform="translate(97.865 129.633) rotate(-30)" fill="#dde3e9"/><path d="M67.6,149.952c-1.3-10.4-2.676-20.746-5.2-30.946-1.489-6.01-3.4-11.894-5.135-17.836q.233,1.118.412,2.248c-.6-1.772-1.867-3.467-2.593-5.232-.81-1.969-1.46-4.015-2.078-6.049-1.206-3.969-2.344-7.945-3.7-11.868-1.513-4.371-3.256-8.669-4.881-13A105.254,105.254,0,0,0,39.952,56.22c-.979-1.912-1.856-3.967-2.816-5.916-.322-.652-3.079-7.941-3.058-7.941.457,0,2.168,3.239,2.452,3.715.829,1.39,1.532,2.836,2.244,4.285a19.1,19.1,0,0,1,1.567-4.991c.237-.489,1.9-4.093,2.444-4.094.27,0-2.234,6.806-2.55,7.4a12.345,12.345,0,0,0-.906,1.617c-.271.834-.132.625.091,1.377a39.386,39.386,0,0,0,1.88,4.05,28.725,28.725,0,0,0,1.829,4.251c1.927,3.765,3.294,8.356,4.76,12.416a26.592,26.592,0,0,1,1.625-5.8c.18-.446,1.612-4.585,2.023-4.585.463,0-1.315,6.628-1.557,7.2-.448,1.064-1.152,2.093-1.525,3.176-.409,1.188.307,2.257.762,3.471,1.676,4.468,3.145,8.981,4.487,13.555,7.819-3.424,9.383-13.484,9.9-20.9a51.705,51.705,0,0,0-1.747-15.973,106.454,106.454,0,0,0-7.73-20.028A71.494,71.494,0,0,0,39.594,12.466a76.551,76.551,0,0,0-10.3-8.212,21.9,21.9,0,0,0-5.644-2.9A20.457,20.457,0,0,0,20.8.66C20.064.532,18.568-.145,17.96.028c-4.967,1.376-8.7,3.66-11.6,7.9a37.13,37.13,0,0,0-5.4,13.525,42.959,42.959,0,0,0-.417,15.8A97.422,97.422,0,0,0,3.6,49.135c4.221,13.894,11.629,28.786,24.938,36.4a40.512,40.512,0,0,0,14,4.663c1.157.179,2.312.35,3.483.414.789.044,3.385-.482,3.955-.142.783.465,1.23,3.106,1.57,4.064,2.586,7.278,4.9,14.639,7,22.066,2.231,7.9,4,15.881,5.476,23.95.627,3.432,1.237,6.858,1.757,10.308.121.8-.007,3.328.777,4.037a.948.948,0,0,0,1.493-.286c.514-.955-.32-3.59-.453-4.655" transform="matrix(0.391, -0.921, 0.921, 0.391, 0.459, 63.314)" fill="#c1dee2"/><path d="M27.148,34.583a43.769,43.769,0,0,1-7.429-.622A39.908,39.908,0,0,1,12.4,31.97,29.481,29.481,0,0,1,4.588,27.9,10.246,10.246,0,0,1,1.8,24.646a7.127,7.127,0,0,1-.714-4.288.806.806,0,0,1-.248.038A.849.849,0,0,1,0,19.83c-.022-.188.125-.331.414-.4.706-.17.734-.22,1-.706l.08-.145a7.529,7.529,0,0,0,.419-.962c.088-.231.18-.471.282-.691a19.212,19.212,0,0,1,1.846-3.2,25.5,25.5,0,0,1,5.6-5.581A39.391,39.391,0,0,1,21.975,1.655,43.038,43.038,0,0,1,28.123.406,49.392,49.392,0,0,1,34.475,0a50.094,50.094,0,0,1,9.617.92,25.082,25.082,0,0,1,6.183,1.935,14.67,14.67,0,0,1,5.082,3.938,14.5,14.5,0,0,1,3.086,6.1,7.2,7.2,0,0,1,.113.834,5.885,5.885,0,0,0,.155,1l.03.109c.167.6.167.6.64.653.133.015.3.033.513.069,1.12.187,2.27.382,3.417.581A83.894,83.894,0,0,1,72.2,18.048,24.049,24.049,0,0,1,75,19.054c.108.046.27.109.457.182,1.061.414,3.036,1.184,3.319,1.943a.832.832,0,0,1,.028.745.545.545,0,0,1-.477.187,3.544,3.544,0,0,1-1.438-.439c-.5-.283-1.027-.551-1.557-.8A25.294,25.294,0,0,0,71.2,19.4c-1.516-.406-3.085-.716-4.6-1.015l-.051-.01c-1.3-.257-2.691-.509-4.37-.8-.826-.141-1.673-.281-2.42-.4l-.015,0a2.208,2.208,0,0,1-.215-.053,1.437,1.437,0,0,0-.343-.068.177.177,0,0,0-.138.047.186.186,0,0,0-.033.149,24.491,24.491,0,0,0-3.855-.319c-.475-.014-.964-.029-1.435-.054-1.82-.095-3.348-.158-4.89-.158-.521,0-1.029.008-1.512.023a44.7,44.7,0,0,0-4.615.357,23.185,23.185,0,0,0-2.656.523c-.107.027-.288.062-.5.1-.728.141-1.947.376-2.152.7.035-.055.259-.082.665-.082.33,0,.734.018,1.049.034l.251.013c.228.012.408.021.492.021h.024c1.091-.041,2.181-.152,3.2-.266a50.153,50.153,0,0,1,5.56-.322l.379,0c-.006.254-.721.651-1.244.94-.193.107-.359.2-.449.262a19.178,19.178,0,0,0-2.114,1.706,20.911,20.911,0,0,0-3.372,3.743,3.912,3.912,0,0,1,1.2-.812c.248-.133.482-.258.624-.358.71-.5,1.362-1,1.939-1.5.609-.525,1.165-1.087,1.628-1.567.169-.175.358-.412.558-.662A5.409,5.409,0,0,1,49.154,18.2l.007,0a.384.384,0,0,1,.108.046l.062.031a.639.639,0,0,0,.254.076.19.19,0,0,0,.081-.017A1.24,1.24,0,0,0,50,17.961a.588.588,0,0,1,.1-.127,1.84,1.84,0,0,1,.657-.1,9.012,9.012,0,0,1,1.157.108c.266.036.517.071.718.08,1.28.059,2.579.133,3.834.2l.045,0,1.36.076c.067,0,.139.005.227.005h.251c.312,0,.583.023.726.3a3.194,3.194,0,0,1-.205,1.686c-.036.128-.068.238-.09.327a10.584,10.584,0,0,1-2.346,4.61,18.941,18.941,0,0,1-7.994,5.292,74.5,74.5,0,0,1-10.565,3.023A54.148,54.148,0,0,1,27.148,34.583ZM38.415,12.762c-.051,0-.084.011-.1.033a.1.1,0,0,0-.009.086c.124.445,2.4,1.6,4.054,2.444A14.931,14.931,0,0,1,44,16.212a11.5,11.5,0,0,0-3.045-2.443A12.322,12.322,0,0,0,38.415,12.762ZM54.438,9.792c0,.023.226.427.47.855l0,0c.2.345.4.7.491.879.409.785.813,1.629,1.235,2.58a15.747,15.747,0,0,0-2.2-4.318Z" transform="translate(77.035 89.156) rotate(-30)" fill="#89c5cc"/></g></svg>